<svg width="74" height="61" viewBox="0 0 74 61" fill="none" xmlns="http://www.w3.org/2000/svg">
<path d="M19.6008 58.3069L13.0958 47.6177L22.6422 31.9738L28.7085 41.9429L64.5193 41.9247L54.3578 58.4545L19.6008 58.3069Z" fill="#FFAD64"/>
<path d="M70.914 31.3106L64.4091 41.9997L45.3557 41.9784L51.4225 32.0095L33.5005 2.59573L53.6702 2.6797L70.914 31.3106Z" fill="#ADD4D3"/>
<path d="M20.6034 2.5388H33.6133L43.1204 18.2044L30.9869 18.2038L13.0983 47.6359L3.09004 31.0222L20.6034 2.5388Z" fill="#FB8351"/>
<path fill-rule="evenodd" clip-rule="evenodd" d="M35.1993 0.06385L35.1605 0H19.0663L0 31.0093L13.088 52.7354L13.1041 52.709L18.0519 60.8395L55.8912 61L69.1795 39.3834H69.0911L74 31.3171L55.227 0.147206L35.1993 0.06385ZM47.6491 20.7432H47.7495L38.2888 5.1546L52.1131 5.21211L67.8277 31.304L62.9091 39.3868L50.0189 39.3933L54.5132 32.0085L47.6491 20.7432ZM31.9219 5.07775L38.3728 15.6652L29.4411 15.665L14.1498 40.8234L13.1067 42.5329L6.1804 31.0351L22.1406 5.07775H31.9219ZM25.7196 31.9527L32.5329 20.7429L41.467 20.7432L48.3319 32.01L43.8366 39.3965L30.2535 39.4035L25.7196 31.9527ZM16.1923 47.6279L18.7843 43.3634L22.639 37.0465L27.164 44.4829L40.7452 44.4759L40.7232 44.5119L59.8178 44.5334L52.8247 55.9093L21.15 55.7747L16.1923 47.6279Z" fill="#333237"/>
</svg>
